<svg width="403" height="84" viewBox="0 0 403 84" fill="none" xmlns="http://www.w3.org/2000/svg">
<path d="M37.5 84C32.7167 84 23.2583 78.2796 16.125 69.9721C6 58.187 2.80901e-07 41.8617 2.80901e-07 21.0005C-0.000305631 20.1605 0.249256 19.3398 0.716449 18.6442C1.18364 17.9487 1.847 17.4103 2.62083 17.0987C16.2625 11.5967 27.1208 6.12418 35.1875 0.706223C35.8722 0.245743 36.6769 0 37.5 0C38.3231 0 39.1278 0.245743 39.8125 0.706223C47.875 6.12418 58.7417 11.6009 72.3792 17.0987C73.153 17.4103 73.8164 17.9487 74.2835 18.6442C74.7507 19.3398 75.0003 20.1605 75 21.0005C75 41.8659 69 58.1912 58.875 69.9721C51.7458 78.2754 42.2875 84 37.5 84Z" fill="#22C55E"/>
<path d="M112.14 63.5V30.92H99.24V21.5H136.86V30.92H124.02V63.5H112.14ZM140.101 63.5V30.98H150.961V40.46L149.341 37.76C150.301 35.32 151.861 33.5 154.021 32.3C156.181 31.06 158.801 30.44 161.881 30.44V40.7C161.361 40.62 160.901 40.58 160.501 40.58C160.141 40.54 159.741 40.52 159.301 40.52C156.981 40.52 155.101 41.16 153.661 42.44C152.221 43.68 151.501 45.72 151.501 48.56V63.5H140.101ZM180.383 64.04C177.743 64.04 175.363 63.52 173.243 62.48C171.163 61.44 169.523 59.82 168.323 57.62C167.163 55.38 166.583 52.56 166.583 49.16V30.98H177.983V47.3C177.983 49.82 178.443 51.62 179.363 52.7C180.323 53.78 181.663 54.32 183.383 54.32C184.503 54.32 185.523 54.06 186.443 53.54C187.363 53.02 188.103 52.2 188.663 51.08C189.223 49.92 189.503 48.44 189.503 46.64V30.98H200.903V63.5H190.043V54.32L192.143 56.9C191.023 59.3 189.403 61.1 187.283 62.3C185.163 63.46 182.863 64.04 180.383 64.04ZM220.066 64.04C217.306 64.04 214.606 63.72 211.966 63.08C209.366 62.44 207.266 61.64 205.666 60.68L209.086 52.88C210.606 53.8 212.386 54.54 214.426 55.1C216.466 55.62 218.466 55.88 220.426 55.88C222.346 55.88 223.666 55.68 224.386 55.28C225.146 54.88 225.526 54.34 225.526 53.66C225.526 53.02 225.166 52.56 224.446 52.28C223.766 51.96 222.846 51.72 221.686 51.56C220.566 51.4 219.326 51.22 217.966 51.02C216.606 50.82 215.226 50.56 213.826 50.24C212.466 49.88 211.206 49.36 210.046 48.68C208.926 47.96 208.026 47 207.346 45.8C206.666 44.6 206.326 43.08 206.326 41.24C206.326 39.16 206.926 37.32 208.126 35.72C209.366 34.08 211.166 32.8 213.526 31.88C215.886 30.92 218.766 30.44 222.166 30.44C224.446 30.44 226.746 30.68 229.066 31.16C231.426 31.6 233.406 32.28 235.006 33.2L231.586 40.94C229.986 40.02 228.386 39.4 226.786 39.08C225.186 38.72 223.666 38.54 222.226 38.54C220.306 38.54 218.946 38.76 218.146 39.2C217.386 39.64 217.006 40.18 217.006 40.82C217.006 41.46 217.346 41.96 218.026 42.32C218.706 42.64 219.606 42.9 220.726 43.1C221.886 43.26 223.146 43.44 224.506 43.64C225.866 43.8 227.226 44.06 228.586 44.42C229.986 44.78 231.246 45.32 232.366 46.04C233.526 46.72 234.446 47.66 235.126 48.86C235.806 50.02 236.146 51.52 236.146 53.36C236.146 55.36 235.526 57.16 234.286 58.76C233.086 60.36 231.286 61.64 228.886 62.6C226.526 63.56 223.586 64.04 220.066 64.04ZM255.578 64.04C251.418 64.04 248.178 63.02 245.858 60.98C243.538 58.9 242.378 55.78 242.378 51.62V23.72H253.778V51.5C253.778 52.66 254.098 53.58 254.738 54.26C255.378 54.9 256.198 55.22 257.198 55.22C258.558 55.22 259.718 54.88 260.678 54.2L263.498 62.18C262.538 62.82 261.358 63.28 259.958 63.56C258.558 63.88 257.098 64.04 255.578 64.04ZM237.638 40.7V32.18H261.218V40.7H237.638ZM268.434 63.5V21.5H289.914C295.434 21.5 299.554 22.52 302.274 24.56C304.994 26.56 306.354 29.2 306.354 32.48C306.354 34.64 305.774 36.54 304.614 38.18C303.494 39.78 301.894 41.06 299.814 42.02C297.774 42.94 295.334 43.4 292.494 43.4L293.694 40.52C296.654 40.52 299.234 40.98 301.434 41.9C303.634 42.78 305.334 44.08 306.534 45.8C307.774 47.48 308.394 49.54 308.394 51.98C308.394 55.62 306.914 58.46 303.954 60.5C301.034 62.5 296.754 63.5 291.114 63.5H268.434ZM280.194 54.92H290.154C292.194 54.92 293.734 54.58 294.774 53.9C295.854 53.18 296.394 52.1 296.394 50.66C296.394 49.22 295.854 48.16 294.774 47.48C293.734 46.76 292.194 46.4 290.154 46.4H279.354V38.18H288.354C290.354 38.18 291.854 37.84 292.854 37.16C293.854 36.48 294.354 35.46 294.354 34.1C294.354 32.74 293.854 31.74 292.854 31.1C291.854 30.42 290.354 30.08 288.354 30.08H280.194V54.92ZM335.488 64.34C332.168 64.34 329.088 63.82 326.248 62.78C323.448 61.7 321.008 60.18 318.928 58.22C316.888 56.26 315.288 53.96 314.128 51.32C312.968 48.64 312.388 45.7 312.388 42.5C312.388 39.3 312.968 36.38 314.128 33.74C315.288 31.06 316.888 28.74 318.928 26.78C321.008 24.82 323.448 23.32 326.248 22.28C329.088 21.2 332.168 20.66 335.488 20.66C339.368 20.66 342.828 21.34 345.868 22.7C348.948 24.06 351.508 26.02 353.548 28.58L345.988 35.42C344.628 33.82 343.128 32.6 341.488 31.76C339.888 30.92 338.088 30.5 336.088 30.5C334.368 30.5 332.788 30.78 331.348 31.34C329.908 31.9 328.668 32.72 327.628 33.8C326.628 34.84 325.828 36.1 325.228 37.58C324.668 39.06 324.388 40.7 324.388 42.5C324.388 44.3 324.668 45.94 325.228 47.42C325.828 48.9 326.628 50.18 327.628 51.26C328.668 52.3 329.908 53.1 331.348 53.66C332.788 54.22 334.368 54.5 336.088 54.5C338.088 54.5 339.888 54.08 341.488 53.24C343.128 52.4 344.628 51.18 345.988 49.58L353.548 56.42C351.508 58.94 348.948 60.9 345.868 62.3C342.828 63.66 339.368 64.34 335.488 64.34ZM386.925 21.5H398.805V63.5H386.925V21.5ZM370.725 63.5H358.845V21.5H370.725V63.5ZM387.765 47.12H369.885V37.28H387.765V47.12Z" fill="#0B1511"/>
</svg>
