<svg width="404" height="84" viewBox="0 0 404 84" fill="none" xmlns="http://www.w3.org/2000/svg">
<path d="M0 35.3501C0 21.9201 3.75509e-07 15.2052 1.58558 12.9461C3.17113 10.6871 9.48494 8.52583 22.1126 4.20332L24.5184 3.37982C31.101 1.12661 34.3921 0 37.8 0C41.2079 0 44.499 1.12661 51.0817 3.37982L53.4874 4.20332C66.1151 8.52583 72.429 10.6871 74.0145 12.9461C75.6 15.2052 75.6 21.9201 75.6 35.3501C75.6 37.3783 75.6 39.5783 75.6 41.9639C75.6 65.6435 57.7962 77.1351 46.6259 82.0147C43.596 83.3381 42.0811 84 37.8 84C33.5189 84 32.004 83.3381 28.9739 82.0147C17.8036 77.1351 0 65.6435 0 41.9639C0 39.5783 0 37.3783 0 35.3501Z" fill="#22C55E"/>
<path fill-rule="evenodd" clip-rule="evenodd" d="M36.1453 22.8193C42.5372 21.2463 48.0288 21.3815 50.4777 26.6536C52.2361 30.5065 51.3347 33.4808 48.9403 35.8173C53.9517 35.3183 57.6826 36.9637 59.1435 42.9992C60.9954 50.5571 56.0207 54.43 48.0982 57.653L50.7527 65.1958L46.0062 66.864L43.3517 59.3213C42.8301 59.4955 42.29 59.6933 41.7362 59.8956C40.9961 60.1662 40.2317 60.446 39.4531 60.6916L42.1079 68.2343L37.37 69.8996L34.7153 62.3568L25.1553 65.499L24.0248 59.7033C24.0248 59.7033 27.6381 58.5242 27.5576 58.5075C28.8756 58.0384 28.9497 56.9935 28.8386 56.3633L24.5797 44.273L21.6027 35.6494C21.1427 34.8029 20.1359 33.9464 18.1833 34.5933C18.2568 34.4644 14.708 35.8147 14.708 35.8147L12.9259 30.7624L22.6529 27.3437L20.0526 19.9554L24.9529 18.2331L27.5533 25.6213C28.4908 25.2646 29.427 24.9451 30.3734 24.622C30.6843 24.5159 30.9962 24.4094 31.3095 24.3012L28.7091 16.913L33.4771 15.2372L36.1453 22.8193ZM31.9029 39.918L32.1472 39.8437C35.0759 38.9554 43.7601 36.3215 42.0119 31.2857C40.3266 26.5136 33.0976 29.2172 29.7389 30.4734C29.3423 30.6217 28.9995 30.7499 28.7262 30.8432L31.9029 39.918ZM37.4949 54.5957C37.3412 54.6428 37.1998 54.686 37.0715 54.7257L33.8948 45.651C34.1974 45.5482 34.5748 45.4108 35.0112 45.2521C38.9935 43.8038 47.8882 40.5689 49.5315 45.3993C51.3201 50.3645 41.0975 53.4931 37.4949 54.5957Z" fill="#F3FBF7"/>
<path d="M112.74 63.5V30.92H99.84V21.5H137.46V30.92H124.62V63.5H112.74ZM140.701 63.5V30.98H151.561V40.46L149.941 37.76C150.901 35.32 152.461 33.5 154.621 32.3C156.781 31.06 159.401 30.44 162.481 30.44V40.7C161.961 40.62 161.501 40.58 161.101 40.58C160.741 40.54 160.341 40.52 159.901 40.52C157.581 40.52 155.701 41.16 154.261 42.44C152.821 43.68 152.101 45.72 152.101 48.56V63.5H140.701ZM180.983 64.04C178.343 64.04 175.963 63.52 173.843 62.48C171.763 61.44 170.123 59.82 168.923 57.62C167.763 55.38 167.183 52.56 167.183 49.16V30.98H178.583V47.3C178.583 49.82 179.043 51.62 179.963 52.7C180.923 53.78 182.263 54.32 183.983 54.32C185.103 54.32 186.123 54.06 187.043 53.54C187.963 53.02 188.703 52.2 189.263 51.08C189.823 49.92 190.103 48.44 190.103 46.64V30.98H201.503V63.5H190.643V54.32L192.743 56.9C191.623 59.3 190.003 61.1 187.883 62.3C185.763 63.46 183.463 64.04 180.983 64.04ZM220.666 64.04C217.906 64.04 215.206 63.72 212.566 63.08C209.966 62.44 207.866 61.64 206.266 60.68L209.686 52.88C211.206 53.8 212.986 54.54 215.026 55.1C217.066 55.62 219.066 55.88 221.026 55.88C222.946 55.88 224.266 55.68 224.986 55.28C225.746 54.88 226.126 54.34 226.126 53.66C226.126 53.02 225.766 52.56 225.046 52.28C224.366 51.96 223.446 51.72 222.286 51.56C221.166 51.4 219.926 51.22 218.566 51.02C217.206 50.82 215.826 50.56 214.426 50.24C213.066 49.88 211.806 49.36 210.646 48.68C209.526 47.96 208.626 47 207.946 45.8C207.266 44.6 206.926 43.08 206.926 41.24C206.926 39.16 207.526 37.32 208.726 35.72C209.966 34.08 211.766 32.8 214.126 31.88C216.486 30.92 219.366 30.44 222.766 30.44C225.046 30.44 227.346 30.68 229.666 31.16C232.026 31.6 234.006 32.28 235.606 33.2L232.186 40.94C230.586 40.02 228.986 39.4 227.386 39.08C225.786 38.72 224.266 38.54 222.826 38.54C220.906 38.54 219.546 38.76 218.746 39.2C217.986 39.64 217.606 40.18 217.606 40.82C217.606 41.46 217.946 41.96 218.626 42.32C219.306 42.64 220.206 42.9 221.326 43.1C222.486 43.26 223.746 43.44 225.106 43.64C226.466 43.8 227.826 44.06 229.186 44.42C230.586 44.78 231.846 45.32 232.966 46.04C234.126 46.72 235.046 47.66 235.726 48.86C236.406 50.02 236.746 51.52 236.746 53.36C236.746 55.36 236.126 57.16 234.886 58.76C233.686 60.36 231.886 61.64 229.486 62.6C227.126 63.56 224.186 64.04 220.666 64.04ZM256.178 64.04C252.018 64.04 248.778 63.02 246.458 60.98C244.138 58.9 242.978 55.78 242.978 51.62V23.72H254.378V51.5C254.378 52.66 254.698 53.58 255.338 54.26C255.978 54.9 256.798 55.22 257.798 55.22C259.158 55.22 260.318 54.88 261.278 54.2L264.098 62.18C263.138 62.82 261.958 63.28 260.558 63.56C259.158 63.88 257.698 64.04 256.178 64.04ZM238.238 40.7V32.18H261.818V40.7H238.238ZM269.034 63.5V21.5H290.514C296.034 21.5 300.154 22.52 302.874 24.56C305.594 26.56 306.954 29.2 306.954 32.48C306.954 34.64 306.374 36.54 305.214 38.18C304.094 39.78 302.494 41.06 300.414 42.02C298.374 42.94 295.934 43.4 293.094 43.4L294.294 40.52C297.254 40.52 299.834 40.98 302.034 41.9C304.234 42.78 305.934 44.08 307.134 45.8C308.374 47.48 308.994 49.54 308.994 51.98C308.994 55.62 307.514 58.46 304.554 60.5C301.634 62.5 297.354 63.5 291.714 63.5H269.034ZM280.794 54.92H290.754C292.794 54.92 294.334 54.58 295.374 53.9C296.454 53.18 296.994 52.1 296.994 50.66C296.994 49.22 296.454 48.16 295.374 47.48C294.334 46.76 292.794 46.4 290.754 46.4H279.954V38.18H288.954C290.954 38.18 292.454 37.84 293.454 37.16C294.454 36.48 294.954 35.46 294.954 34.1C294.954 32.74 294.454 31.74 293.454 31.1C292.454 30.42 290.954 30.08 288.954 30.08H280.794V54.92ZM336.088 64.34C332.768 64.34 329.688 63.82 326.848 62.78C324.048 61.7 321.608 60.18 319.528 58.22C317.488 56.26 315.888 53.96 314.728 51.32C313.568 48.64 312.988 45.7 312.988 42.5C312.988 39.3 313.568 36.38 314.728 33.74C315.888 31.06 317.488 28.74 319.528 26.78C321.608 24.82 324.048 23.32 326.848 22.28C329.688 21.2 332.768 20.66 336.088 20.66C339.968 20.66 343.428 21.34 346.468 22.7C349.548 24.06 352.108 26.02 354.148 28.58L346.588 35.42C345.228 33.82 343.728 32.6 342.088 31.76C340.488 30.92 338.688 30.5 336.688 30.5C334.968 30.5 333.388 30.78 331.948 31.34C330.508 31.9 329.268 32.72 328.228 33.8C327.228 34.84 326.428 36.1 325.828 37.58C325.268 39.06 324.988 40.7 324.988 42.5C324.988 44.3 325.268 45.94 325.828 47.42C326.428 48.9 327.228 50.18 328.228 51.26C329.268 52.3 330.508 53.1 331.948 53.66C333.388 54.22 334.968 54.5 336.688 54.5C338.688 54.5 340.488 54.08 342.088 53.24C343.728 52.4 345.228 51.18 346.588 49.58L354.148 56.42C352.108 58.94 349.548 60.9 346.468 62.3C343.428 63.66 339.968 64.34 336.088 64.34ZM387.525 21.5H399.405V63.5H387.525V21.5ZM371.325 63.5H359.445V21.5H371.325V63.5ZM388.365 47.12H370.485V37.28H388.365V47.12Z" fill="#F3FBF7"/>
</svg>
